<?xml version="1.0" encoding="UTF-8"?>
<svg xmlns="http://www.w3.org/2000/svg" viewBox="0 0 500 500" fill="#0A0A0A" role="img" aria-label="Enso">
  <title>Enso</title>
  <g>
<ellipse cx="105.88" cy="195.52" rx="5.52" ry="2.98" transform="rotate(-66.81 105.88 195.52)" opacity="1"/>
<ellipse cx="107.57" cy="191.15" rx="7.74" ry="4.17" transform="rotate(-64.95 107.57 191.15)" opacity="1"/>
<ellipse cx="109.41" cy="186.83" rx="10.00" ry="5.39" transform="rotate(-63.10 109.41 186.83)" opacity="1"/>
<ellipse cx="111.39" cy="182.56" rx="12.21" ry="6.58" transform="rotate(-61.25 111.39 182.56)" opacity="1"/>
<ellipse cx="113.52" cy="178.36" rx="14.65" ry="7.90" transform="rotate(-59.41 113.52 178.36)" opacity="1"/>
<ellipse cx="115.78" cy="174.21" rx="16.60" ry="8.95" transform="rotate(-57.57 115.78 174.21)" opacity="1"/>
<ellipse cx="118.19" cy="170.13" rx="18.30" ry="9.86" transform="rotate(-55.73 118.19 170.13)" opacity="1"/>
<ellipse cx="120.74" cy="166.12" rx="21.01" ry="11.33" transform="rotate(-53.90 120.74 166.12)" opacity="1"/>
<ellipse cx="123.43" cy="162.19" rx="23.33" ry="12.58" transform="rotate(-52.08 123.43 162.19)" opacity="1"/>
<ellipse cx="126.25" cy="158.34" rx="25.32" ry="13.65" transform="rotate(-50.26 126.25 158.34)" opacity="1"/>
<ellipse cx="129.20" cy="154.58" rx="25.61" ry="13.81" transform="rotate(-48.44 129.20 154.58)" opacity="1"/>
<ellipse cx="132.29" cy="150.91" rx="26.42" ry="14.24" transform="rotate(-46.63 132.29 150.91)" opacity="1"/>
<ellipse cx="135.50" cy="147.34" rx="26.00" ry="14.02" transform="rotate(-44.83 135.50 147.34)" opacity="1"/>
<ellipse cx="138.84" cy="143.86" rx="26.64" ry="14.36" transform="rotate(-43.03 138.84 143.86)" opacity="1"/>
<ellipse cx="142.30" cy="140.49" rx="26.91" ry="14.51" transform="rotate(-41.24 142.30 140.49)" opacity="1"/>
<ellipse cx="145.88" cy="137.23" rx="26.32" ry="14.19" transform="rotate(-39.45 145.88 137.23)" opacity="1"/>
<ellipse cx="149.57" cy="134.08" rx="26.59" ry="14.33" transform="rotate(-37.66 149.57 134.08)" opacity="1"/>
<ellipse cx="153.37" cy="131.05" rx="26.99" ry="14.55" transform="rotate(-35.89 153.37 131.05)" opacity="1"/>
<ellipse cx="157.28" cy="128.14" rx="27.43" ry="14.79" transform="rotate(-34.11 157.28 128.14)" opacity="1"/>
<ellipse cx="161.28" cy="125.35" rx="27.64" ry="14.90" transform="rotate(-32.34 161.28 125.35)" opacity="1"/>
<ellipse cx="165.39" cy="122.69" rx="28.23" ry="15.22" transform="rotate(-30.58 165.39 122.69)" opacity="1"/>
<ellipse cx="169.59" cy="120.17" rx="27.70" ry="14.94" transform="rotate(-28.82 169.59 120.17)" opacity="1"/>
<ellipse cx="173.87" cy="117.77" rx="28.75" ry="15.50" transform="rotate(-27.06 173.87 117.77)" opacity="1"/>
<ellipse cx="178.24" cy="115.52" rx="28.96" ry="15.61" transform="rotate(-25.31 178.24 115.52)" opacity="1"/>
<ellipse cx="182.68" cy="113.40" rx="28.93" ry="15.60" transform="rotate(-23.57 182.68 113.40)" opacity="1"/>
<ellipse cx="187.20" cy="111.42" rx="29.92" ry="16.13" transform="rotate(-21.82 187.20 111.42)" opacity="1"/>
<ellipse cx="191.78" cy="109.59" rx="30.10" ry="16.23" transform="rotate(-20.08 191.78 109.59)" opacity="1"/>
<ellipse cx="196.42" cy="107.91" rx="25.24" ry="13.61" transform="rotate(-18.35 196.42 107.91)" opacity="1"/>
<ellipse cx="201.12" cy="106.37" rx="24.72" ry="13.33" transform="rotate(-16.61 201.12 106.37)" opacity="1"/>
<ellipse cx="205.87" cy="104.98" rx="25.33" ry="13.66" transform="rotate(-14.88 205.87 104.98)" opacity="1"/>
<ellipse cx="210.67" cy="103.74" rx="24.92" ry="13.43" transform="rotate(-13.15 210.67 103.74)" opacity="1"/>
<ellipse cx="215.50" cy="102.65" rx="24.77" ry="13.35" transform="rotate(-11.43 215.50 102.65)" opacity="1"/>
<ellipse cx="220.37" cy="101.71" rx="25.97" ry="14.00" transform="rotate(-9.70 220.37 101.71)" opacity="1"/>
<ellipse cx="225.27" cy="100.92" rx="26.49" ry="14.28" transform="rotate(-7.98 225.27 100.92)" opacity="1"/>
<ellipse cx="230.19" cy="100.29" rx="25.58" ry="13.79" transform="rotate(-6.26 230.19 100.29)" opacity="1"/>
<ellipse cx="235.13" cy="99.81" rx="25.49" ry="13.74" transform="rotate(-4.54 235.13 99.81)" opacity="1"/>
<ellipse cx="240.08" cy="99.48" rx="26.57" ry="14.33" transform="rotate(-2.82 240.08 99.48)" opacity="1"/>
<ellipse cx="245.04" cy="99.31" rx="26.10" ry="14.07" transform="rotate(-1.10 245.04 99.31)" opacity="1"/>
<ellipse cx="250.00" cy="99.28" rx="26.57" ry="14.32" transform="rotate(0.62 250.00 99.28)" opacity="1"/>
<ellipse cx="254.96" cy="99.41" rx="26.75" ry="14.42" transform="rotate(2.34 254.96 99.41)" opacity="1"/>
<ellipse cx="259.90" cy="99.69" rx="27.32" ry="14.73" transform="rotate(4.06 259.90 99.69)" opacity="1"/>
<ellipse cx="264.84" cy="100.11" rx="26.33" ry="14.19" transform="rotate(5.78 264.84 100.11)" opacity="1"/>
<ellipse cx="269.75" cy="100.69" rx="27.61" ry="14.89" transform="rotate(7.50 269.75 100.69)" opacity="1"/>
<ellipse cx="274.65" cy="101.41" rx="27.70" ry="14.93" transform="rotate(9.22 274.65 101.41)" opacity="1"/>
<ellipse cx="279.51" cy="102.28" rx="27.12" ry="14.62" transform="rotate(10.94 279.51 102.28)" opacity="1"/>
<ellipse cx="284.34" cy="103.29" rx="26.66" ry="14.37" transform="rotate(12.67 284.34 103.29)" opacity="1"/>
<ellipse cx="289.14" cy="104.44" rx="26.87" ry="14.49" transform="rotate(14.40 289.14 104.44)" opacity="1"/>
<ellipse cx="293.89" cy="105.74" rx="28.26" ry="15.24" transform="rotate(16.13 293.89 105.74)" opacity="1"/>
<ellipse cx="298.60" cy="107.18" rx="27.81" ry="15.00" transform="rotate(17.86 298.60 107.18)" opacity="1"/>
<ellipse cx="303.26" cy="108.75" rx="27.98" ry="15.09" transform="rotate(19.60 303.26 108.75)" opacity="1"/>
<ellipse cx="307.86" cy="110.46" rx="27.67" ry="14.92" transform="rotate(21.34 307.86 110.46)" opacity="1"/>
<ellipse cx="312.41" cy="112.30" rx="28.17" ry="15.19" transform="rotate(23.08 312.41 112.30)" opacity="1"/>
<ellipse cx="316.89" cy="114.28" rx="28.68" ry="15.46" transform="rotate(24.82 316.89 114.28)" opacity="1"/>
<ellipse cx="321.30" cy="116.38" rx="27.69" ry="14.93" transform="rotate(26.57 321.30 116.38)" opacity="1"/>
<ellipse cx="325.64" cy="118.62" rx="28.74" ry="15.50" transform="rotate(28.33 325.64 118.62)" opacity="1"/>
<ellipse cx="329.91" cy="120.98" rx="27.82" ry="15.00" transform="rotate(30.09 329.91 120.98)" opacity="1"/>
<ellipse cx="334.10" cy="123.46" rx="28.60" ry="15.42" transform="rotate(31.85 334.10 123.46)" opacity="1"/>
<ellipse cx="338.21" cy="126.06" rx="29.02" ry="15.65" transform="rotate(33.62 338.21 126.06)" opacity="1"/>
<ellipse cx="342.23" cy="128.79" rx="29.72" ry="16.02" transform="rotate(35.39 342.23 128.79)" opacity="1"/>
<ellipse cx="346.16" cy="131.63" rx="28.84" ry="15.55" transform="rotate(37.17 346.16 131.63)" opacity="1"/>
<ellipse cx="350.00" cy="134.58" rx="28.99" ry="15.63" transform="rotate(38.95 350.00 134.58)" opacity="1"/>
<ellipse cx="353.74" cy="137.65" rx="28.87" ry="15.56" transform="rotate(40.73 353.74 137.65)" opacity="1"/>
<ellipse cx="357.38" cy="140.82" rx="28.41" ry="15.32" transform="rotate(42.53 357.38 140.82)" opacity="1"/>
<ellipse cx="360.91" cy="144.10" rx="29.68" ry="16.00" transform="rotate(44.32 360.91 144.10)" opacity="1"/>
<ellipse cx="364.34" cy="147.48" rx="29.20" ry="15.74" transform="rotate(46.13 364.34 147.48)" opacity="1"/>
<ellipse cx="367.65" cy="150.96" rx="29.86" ry="16.10" transform="rotate(47.93 367.65 150.96)" opacity="1"/>
<ellipse cx="370.85" cy="154.54" rx="29.11" ry="15.69" transform="rotate(49.75 370.85 154.54)" opacity="1"/>
<ellipse cx="373.93" cy="158.21" rx="29.61" ry="15.96" transform="rotate(51.57 373.93 158.21)" opacity="1"/>
<ellipse cx="376.88" cy="161.98" rx="29.29" ry="15.79" transform="rotate(53.39 376.88 161.98)" opacity="1"/>
<ellipse cx="379.71" cy="165.83" rx="30.22" ry="16.29" transform="rotate(55.22 379.71 165.83)" opacity="1"/>
<ellipse cx="382.42" cy="169.76" rx="29.04" ry="15.66" transform="rotate(57.05 382.42 169.76)" opacity="1"/>
<ellipse cx="384.99" cy="173.77" rx="29.01" ry="15.64" transform="rotate(58.89 384.99 173.77)" opacity="1"/>
<ellipse cx="387.42" cy="177.86" rx="29.95" ry="16.15" transform="rotate(60.73 387.42 177.86)" opacity="1"/>
<ellipse cx="389.72" cy="182.02" rx="29.96" ry="16.15" transform="rotate(62.58 389.72 182.02)" opacity="1"/>
<ellipse cx="391.88" cy="186.25" rx="29.10" ry="15.69" transform="rotate(64.43 391.88 186.25)" opacity="1"/>
<ellipse cx="393.90" cy="190.54" rx="29.55" ry="15.93" transform="rotate(66.29 393.90 190.54)" opacity="1"/>
<ellipse cx="395.76" cy="194.89" rx="29.58" ry="15.95" transform="rotate(68.15 395.76 194.89)" opacity="1"/>
<ellipse cx="397.48" cy="199.30" rx="30.59" ry="16.49" transform="rotate(70.01 397.48 199.30)" opacity="1"/>
<ellipse cx="399.06" cy="203.76" rx="30.44" ry="16.41" transform="rotate(71.88 399.06 203.76)" opacity="1"/>
<ellipse cx="400.47" cy="208.26" rx="30.04" ry="16.20" transform="rotate(73.75 400.47 208.26)" opacity="1"/>
<ellipse cx="401.74" cy="212.80" rx="29.64" ry="15.98" transform="rotate(75.62 401.74 212.80)" opacity="1"/>
<ellipse cx="402.84" cy="217.38" rx="30.54" ry="16.46" transform="rotate(77.50 402.84 217.38)" opacity="1"/>
<ellipse cx="403.79" cy="221.99" rx="29.93" ry="16.14" transform="rotate(79.38 403.79 221.99)" opacity="1"/>
<ellipse cx="404.58" cy="226.62" rx="29.64" ry="15.98" transform="rotate(81.26 404.58 226.62)" opacity="1"/>
<ellipse cx="405.22" cy="231.28" rx="29.39" ry="15.84" transform="rotate(83.14 405.22 231.28)" opacity="1"/>
<ellipse cx="405.69" cy="235.95" rx="29.73" ry="16.03" transform="rotate(85.02 405.69 235.95)" opacity="1"/>
<ellipse cx="406.00" cy="240.63" rx="28.80" ry="15.52" transform="rotate(86.91 406.00 240.63)" opacity="1"/>
<ellipse cx="406.15" cy="245.31" rx="30.31" ry="16.34" transform="rotate(88.79 406.15 245.31)" opacity="1"/>
<ellipse cx="406.13" cy="250.00" rx="29.24" ry="15.76" transform="rotate(90.68 406.13 250.00)" opacity="1"/>
<ellipse cx="405.96" cy="254.68" rx="29.38" ry="15.84" transform="rotate(92.56 405.96 254.68)" opacity="1"/>
<ellipse cx="405.62" cy="259.35" rx="28.83" ry="15.54" transform="rotate(94.45 405.62 259.35)" opacity="1"/>
<ellipse cx="405.13" cy="264.00" rx="28.69" ry="15.47" transform="rotate(96.33 405.13 264.00)" opacity="1"/>
<ellipse cx="404.47" cy="268.63" rx="29.81" ry="16.07" transform="rotate(98.21 404.47 268.63)" opacity="1"/>
<ellipse cx="403.66" cy="273.24" rx="29.39" ry="15.85" transform="rotate(100.10 403.66 273.24)" opacity="1"/>
<ellipse cx="402.69" cy="277.81" rx="29.27" ry="15.78" transform="rotate(101.97 402.69 277.81)" opacity="1"/>
<ellipse cx="401.56" cy="282.35" rx="28.48" ry="15.35" transform="rotate(103.85 401.56 282.35)" opacity="1"/>
<ellipse cx="400.29" cy="286.84" rx="29.20" ry="15.74" transform="rotate(105.73 400.29 286.84)" opacity="1"/>
<ellipse cx="398.86" cy="291.29" rx="29.23" ry="15.76" transform="rotate(107.60 398.86 291.29)" opacity="1"/>
<ellipse cx="397.28" cy="295.69" rx="29.60" ry="15.96" transform="rotate(109.47 397.28 295.69)" opacity="1"/>
<ellipse cx="395.55" cy="300.04" rx="29.64" ry="15.98" transform="rotate(111.33 395.55 300.04)" opacity="1"/>
<ellipse cx="393.69" cy="304.32" rx="28.92" ry="15.59" transform="rotate(113.19 393.69 304.32)" opacity="1"/>
<ellipse cx="391.68" cy="308.54" rx="28.83" ry="15.55" transform="rotate(115.05 391.68 308.54)" opacity="1"/>
<ellipse cx="389.53" cy="312.69" rx="28.68" ry="15.46" transform="rotate(116.90 389.53 312.69)" opacity="1"/>
<ellipse cx="387.25" cy="316.77" rx="28.43" ry="15.33" transform="rotate(118.75 387.25 316.77)" opacity="1"/>
<ellipse cx="384.83" cy="320.78" rx="27.66" ry="14.91" transform="rotate(120.59 384.83 320.78)" opacity="1"/>
<ellipse cx="382.29" cy="324.70" rx="28.50" ry="15.36" transform="rotate(122.43 382.29 324.70)" opacity="1"/>
<ellipse cx="379.62" cy="328.54" rx="28.38" ry="15.30" transform="rotate(124.27 379.62 328.54)" opacity="1"/>
<ellipse cx="376.83" cy="332.30" rx="28.84" ry="15.55" transform="rotate(126.10 376.83 332.30)" opacity="1"/>
<ellipse cx="373.92" cy="335.97" rx="28.24" ry="15.23" transform="rotate(127.92 373.92 335.97)" opacity="1"/>
<ellipse cx="370.90" cy="339.55" rx="27.16" ry="14.64" transform="rotate(129.74 370.90 339.55)" opacity="1"/>
<ellipse cx="367.77" cy="343.03" rx="27.04" ry="14.58" transform="rotate(131.56 367.77 343.03)" opacity="1"/>
<ellipse cx="364.53" cy="346.41" rx="27.76" ry="14.97" transform="rotate(133.37 364.53 346.41)" opacity="1"/>
<ellipse cx="361.19" cy="349.70" rx="28.17" ry="15.18" transform="rotate(135.17 361.19 349.70)" opacity="1"/>
<ellipse cx="357.75" cy="352.88" rx="27.00" ry="14.56" transform="rotate(136.97 357.75 352.88)" opacity="1"/>
<ellipse cx="354.21" cy="355.96" rx="27.82" ry="15.00" transform="rotate(138.76 354.21 355.96)" opacity="1"/>
<ellipse cx="350.58" cy="358.93" rx="26.79" ry="14.44" transform="rotate(140.55 350.58 358.93)" opacity="1"/>
<ellipse cx="346.86" cy="361.80" rx="27.27" ry="14.70" transform="rotate(142.34 346.86 361.80)" opacity="1"/>
<ellipse cx="343.06" cy="364.55" rx="26.96" ry="14.53" transform="rotate(144.11 343.06 364.55)" opacity="1"/>
<ellipse cx="339.18" cy="367.20" rx="25.88" ry="13.96" transform="rotate(145.89 339.18 367.20)" opacity="1"/>
<ellipse cx="335.22" cy="369.73" rx="26.09" ry="14.06" transform="rotate(147.66 335.22 369.73)" opacity="1"/>
<ellipse cx="331.18" cy="372.15" rx="26.54" ry="14.31" transform="rotate(149.42 331.18 372.15)" opacity="1"/>
<ellipse cx="327.08" cy="374.45" rx="26.12" ry="14.08" transform="rotate(151.18 327.08 374.45)" opacity="1"/>
<ellipse cx="322.91" cy="376.63" rx="26.18" ry="14.12" transform="rotate(152.94 322.91 376.63)" opacity="1"/>
<ellipse cx="318.68" cy="378.70" rx="25.41" ry="13.70" transform="rotate(154.69 318.68 378.70)" opacity="1"/>
<ellipse cx="314.38" cy="380.64" rx="26.02" ry="14.03" transform="rotate(156.43 314.38 380.64)" opacity="1"/>
<ellipse cx="310.03" cy="382.46" rx="25.25" ry="13.62" transform="rotate(158.18 310.03 382.46)" opacity="1"/>
<ellipse cx="305.63" cy="384.16" rx="24.77" ry="13.35" transform="rotate(159.92 305.63 384.16)" opacity="1"/>
<ellipse cx="301.18" cy="385.74" rx="25.32" ry="13.65" transform="rotate(161.65 301.18 385.74)" opacity="1"/>
<ellipse cx="296.69" cy="387.19" rx="24.90" ry="13.43" transform="rotate(163.39 296.69 387.19)" opacity="1"/>
<ellipse cx="292.15" cy="388.52" rx="24.45" ry="13.18" transform="rotate(165.12 292.15 388.52)" opacity="1"/>
<ellipse cx="287.57" cy="389.72" rx="27.86" ry="15.02" transform="rotate(166.85 287.57 389.72)" opacity="1"/>
<ellipse cx="282.96" cy="390.79" rx="27.38" ry="14.76" transform="rotate(168.57 282.96 390.79)" opacity="1"/>
<ellipse cx="278.32" cy="391.73" rx="26.43" ry="14.25" transform="rotate(170.30 278.32 391.73)" opacity="1"/>
<ellipse cx="273.64" cy="392.54" rx="24.63" ry="13.28" transform="rotate(172.02 273.64 392.54)" opacity="1"/>
<ellipse cx="268.95" cy="393.22" rx="24.63" ry="13.28" transform="rotate(173.74 268.95 393.22)" opacity="1"/>
<ellipse cx="264.23" cy="393.77" rx="24.59" ry="13.26" transform="rotate(175.46 264.23 393.77)" opacity="1"/>
<ellipse cx="259.50" cy="394.19" rx="23.53" ry="12.68" transform="rotate(177.18 259.50 394.19)" opacity="1"/>
<ellipse cx="254.75" cy="394.47" rx="23.05" ry="12.43" transform="rotate(178.90 254.75 394.47)" opacity="1"/>
<ellipse cx="250.00" cy="394.61" rx="22.30" ry="12.02" transform="rotate(-179.38 250.00 394.61)" opacity="1"/>
<ellipse cx="245.24" cy="394.62" rx="20.83" ry="11.23" transform="rotate(-177.66 245.24 394.62)" opacity="1"/>
<ellipse cx="240.48" cy="394.50" rx="20.82" ry="11.22" transform="rotate(-175.94 240.48 394.50)" opacity="1"/>
<ellipse cx="235.72" cy="394.23" rx="20.16" ry="10.87" transform="rotate(-174.22 235.72 394.23)" opacity="1"/>
<ellipse cx="230.97" cy="393.83" rx="19.12" ry="10.31" transform="rotate(-172.50 230.97 393.83)" opacity="1"/>
<ellipse cx="226.23" cy="393.29" rx="19.22" ry="10.36" transform="rotate(-170.78 226.23 393.29)" opacity="1"/>
<ellipse cx="221.51" cy="392.61" rx="17.74" ry="9.56" transform="rotate(-169.06 221.51 392.61)" opacity="1"/>
<ellipse cx="216.81" cy="391.80" rx="17.13" ry="9.23" transform="rotate(-167.33 216.81 391.80)" opacity="1"/>
<ellipse cx="212.13" cy="390.84" rx="17.42" ry="9.39" transform="rotate(-165.60 212.13 390.84)" opacity="1"/>
<ellipse cx="207.48" cy="389.75" rx="16.37" ry="8.83" transform="rotate(-163.87 207.48 389.75)" opacity="1"/>
<ellipse cx="202.87" cy="388.51" rx="15.80" ry="8.52" transform="rotate(-162.14 202.87 388.51)" opacity="1"/>
<ellipse cx="198.29" cy="387.14" rx="15.26" ry="8.23" transform="rotate(-160.40 198.29 387.14)" opacity="1"/>
<ellipse cx="193.76" cy="385.64" rx="14.67" ry="7.91" transform="rotate(-158.66 193.76 385.64)" opacity="1"/>
<ellipse cx="189.27" cy="383.99" rx="14.05" ry="7.57" transform="rotate(-156.92 189.27 383.99)" opacity="1"/>
<ellipse cx="184.84" cy="382.21" rx="12.65" ry="6.82" transform="rotate(-155.18 184.84 382.21)" opacity="1"/>
<ellipse cx="180.47" cy="380.29" rx="12.11" ry="6.53" transform="rotate(-153.43 180.47 380.29)" opacity="1"/>
<ellipse cx="176.16" cy="378.25" rx="11.77" ry="6.34" transform="rotate(-151.67 176.16 378.25)" opacity="1"/>
<ellipse cx="171.92" cy="376.06" rx="10.98" ry="5.57" transform="rotate(-149.91 171.92 376.06)" opacity="1"/>
<ellipse cx="167.75" cy="373.75" rx="10.12" ry="4.98" transform="rotate(-148.15 167.75 373.75)" opacity="1"/>
<ellipse cx="163.66" cy="371.31" rx="9.61" ry="5.28" transform="rotate(-146.38 163.66 371.31)" opacity="1"/>
<ellipse cx="159.65" cy="368.75" rx="9.05" ry="4.70" transform="rotate(-144.61 159.65 368.75)" opacity="1"/>
<ellipse cx="151.89" cy="363.24" rx="8.20" ry="3.65" transform="rotate(-141.05 151.89 363.24)" opacity="0.69"/>
<ellipse cx="148.15" cy="360.31" rx="8.00" ry="3.13" transform="rotate(-139.27 148.15 360.31)" opacity="0.42"/>
<ellipse cx="144.51" cy="357.27" rx="7.78" ry="4.43" transform="rotate(-137.47 144.51 357.27)" opacity="0.45"/>
<ellipse cx="148.47" cy="360.18" rx="2.94" ry="0.54" transform="rotate(-149.48 148.47 360.18)" opacity="0.34"/>
<ellipse cx="140.97" cy="354.11" rx="7.41" ry="3.08" transform="rotate(-135.68 140.97 354.11)" opacity="0.52"/>
<ellipse cx="137.54" cy="350.84" rx="7.13" ry="3.91" transform="rotate(-133.87 137.54 350.84)" opacity="0.64"/>
<ellipse cx="139.85" cy="349.54" rx="2.59" ry="0.50" transform="rotate(-142.07 139.85 349.54)" opacity="0.38"/>
<ellipse cx="134.22" cy="347.46" rx="6.50" ry="2.55" transform="rotate(-132.07 134.22 347.46)" opacity="0.63"/>
<ellipse cx="137.94" cy="347.66" rx="2.58" ry="0.45" transform="rotate(-145.38 137.94 347.66)" opacity="0.51"/>
<ellipse cx="131.02" cy="343.98" rx="6.41" ry="3.88" transform="rotate(-130.25 131.02 343.98)" opacity="0.42"/>
<ellipse cx="130.74" cy="348.27" rx="2.77" ry="0.45" transform="rotate(-133.58 130.74 348.27)" opacity="0.49"/>
<ellipse cx="127.93" cy="340.41" rx="5.95" ry="2.57" transform="rotate(-128.43 127.93 340.41)" opacity="0.40"/>
<ellipse cx="124.97" cy="336.74" rx="5.79" ry="2.98" transform="rotate(-126.61 124.97 336.74)" opacity="0.47"/>
<ellipse cx="121.14" cy="339.78" rx="1.23" ry="0.40" transform="rotate(-139.72 121.14 339.78)" opacity="0.48"/>
<ellipse cx="122.13" cy="332.97" rx="5.27" ry="2.49" transform="rotate(-124.78 122.13 332.97)" opacity="0.42"/>
<ellipse cx="122.78" cy="332.65" rx="2.28" ry="0.37" transform="rotate(-129.34 122.78 332.65)" opacity="0.53"/>
<ellipse cx="119.42" cy="329.12" rx="4.99" ry="2.50" transform="rotate(-122.95 119.42 329.12)" opacity="0.82"/>
<ellipse cx="116.84" cy="325.19" rx="4.64" ry="1.94" transform="rotate(-121.11 116.84 325.19)" opacity="0.47"/>
<ellipse cx="113.36" cy="322.23" rx="1.65" ry="0.32" transform="rotate(-131.32 113.36 322.23)" opacity="0.39"/>
<ellipse cx="112.09" cy="317.10" rx="4.01" ry="2.16" transform="rotate(-117.42 112.09 317.10)" opacity="0.54"/>
<ellipse cx="114.73" cy="316.02" rx="1.39" ry="0.28" transform="rotate(-129.88 114.73 316.02)" opacity="0.35"/>
<ellipse cx="105.99" cy="304.44" rx="3.06" ry="1.79" transform="rotate(-111.85 105.99 304.44)" opacity="0.54"/>
<ellipse cx="106.33" cy="305.80" rx="1.30" ry="0.21" transform="rotate(-113.54 106.33 305.80)" opacity="0.39"/>
<ellipse cx="102.64" cy="295.72" rx="2.35" ry="1.29" transform="rotate(-108.12 102.64 295.72)" opacity="0.41"/>
<ellipse cx="103.58" cy="295.46" rx="0.98" ry="0.16" transform="rotate(-100.89 103.58 295.46)" opacity="0.35"/>
<ellipse cx="101.18" cy="291.28" rx="1.94" ry="0.77" transform="rotate(-106.25 101.18 291.28)" opacity="0.82"/>
<ellipse cx="99.87" cy="286.81" rx="1.67" ry="0.77" transform="rotate(0.00 99.87 286.81)" opacity="0.71"/>
<ellipse cx="100.16" cy="288.05" rx="0.50" ry="0.12" transform="rotate(9.24 100.16 288.05)" opacity="0.52"/>
  </g>
</svg>
